<svg xmlns="http://www.w3.org/2000/svg" data-name="Шар_1" viewBox="0 0 512 512"><circle cx="256" cy="256" r="256" style="fill:#0077b5"/><path d="M189.12 131.63c0 15.94-12.13 28.83-31.11 28.83s-30.37-12.9-30-28.83c-.38-16.71 11.76-29.23 30.36-29.23s30.38 12.52 30.75 29.23m-59.59 237.25V183.24h57.69v185.62h-57.69Zm103.93-126.39c0-23.15-.76-42.89-1.53-59.22h50.11l2.66 25.43h1.14c7.59-11.77 26.57-29.6 57.32-29.6 37.95 0 66.42 25.06 66.42 79.7v110.11h-57.69V266.03c0-23.93-8.34-40.24-29.22-40.24-15.95 0-25.43 11.01-29.22 21.63-1.53 3.8-2.28 9.11-2.28 14.43V368.9h-57.69V242.48h-.02Z" style="fill:#fff;fill-rule:evenodd"/></svg>