<svg xmlns="http://www.w3.org/2000/svg" id="_Шар_2" data-name="Шар_2" viewBox="0 0 484 294"><defs><style>.st2{fill:#1d1d1d}</style></defs><g id="e20413"><path d="M16.3 154c-3.7-10.5-8-20.5-10.7-31.1q-2.4-8.6-4.3-17.3c-.3-1.6-.4-2.4 1.7-3 9-2.4 18.2-5.3 27.4-7.8a481 481 0 0 0 62.5-23q36-16.2 69.5-37.3Q185.3 20 206.4 3c2.4-2 3.3-2 5 .3a273 273 0 0 1 46.9 83 247 247 0 0 1 12.3 90 192 192 0 0 1-11.6 60.4c-9 23.8-23 43-48.1 51.7C154.5 307 61.9 250 16.3 154" class="st2"/><path d="M122 255.6q21.2 14.5 46.4 20.3c20 4.5 39.3 3.3 55.8-11a80 80 0 0 0 23.4-37.7c11.7-37 11.9-74.6 4-112.3-7-33.4-21.8-63.5-42-91-2.3-3-3.5-3-6.4-.8a527 527 0 0 1-178.7 88c-6.7 2-6.8 1.9-5 8.4l2 6.7c16.6 53.3 48 95.4 100.5 129.4" style="fill:#e20413"/><path d="M238.3 201.2c-40.8-5.3-72.6 7.8-95.6 41-.5-14.2 12-34.7 29.7-45.7 17-10.5 47.2-9.4 65.9 4.8m-16.9-90a82 82 0 0 0-42.6-2.3c-8 2.2-14.7 6.7-17 15.3-.8 2.6-.5 3.4 2.5 4.2 24.1 6.5 38.8-2.6 57-17.2M81 178.5a76 76 0 0 1 23.6-33.7c6.4-4.9 14-7.4 22.4-4 2.5 1 3 1.9 1.8 4.6-9 22.1-25.2 28-48 33" class="st2"/></g><g id="_x30_0b5ec"><path d="M249.5 41c6.8-8.9 13-17.9 20.3-26L282 2c1.2-1.2 1.8-1.8 3.4-.3l21.5 18.7a481 481 0 0 0 53.5 39.8c22 14.6 45.3 26.7 69.1 38a461 461 0 0 0 50.2 19.7c3 1 3.5 1.7 2.6 4.4a273 273 0 0 1-44 84.5c-19 23.9-42.4 44-68.8 59.4a191 191 0 0 1-57 23.3c-24.7 5.4-48.5 4.2-69.5-12.2-46.2-37.2-49-145.8 6.6-236.4" class="st2"/><path d="M222 185c0-62.6 18-111.9 53.7-155l4.5-5.3c4.5-5 4.4-5 9.6-.3a528 528 0 0 0 171.4 101.8c3.4 1.2 4 2.3 2.7 5.8-11.9 32-29 60.7-53.2 84.8a218 218 0 0 1-96.3 57.8 80 80 0 0 1-44.5 1c-20.9-6-32.4-21.4-39.5-40.8-6.7-18.2-9-37-8.3-50" style="fill:#00b5ec"/><path d="M258.2 169.5c20 36.1 49.3 54 89.6 52.8-11.2 8.8-35 11-54.4 3.1C275 218 258 193 258.2 169.5m140 11.6c-20-2.5-37-8.7-45-28.8-1-2.8-.7-3.8 2-4.7a26 26 0 0 1 24.7 4c9.5 7 14.5 17.4 19.7 27.5 1.4 2.7-1 2-1.3 2m-129-78c11 .2 21.4-1 31.4 2.1A28 28 0 0 1 321 127c.7 3.1 0 4-3.6 4.4-19.7 2-33-8.3-44-22.8zm64.6 54q-4.4 16.5-10 32.6c-1 2.5-9.4-.4-10.4-2.5-1-2 14-20.7 20.4-30" class="st2"/></g></svg>