<svg xmlns="http://www.w3.org/2000/svg" id="_Шар_2" data-name="Шар_2" viewBox="0 0 484 294"><defs><style>.st1{fill:#1d1d1d}</style></defs><g id="_x30_0b5ec"><path d="M249.5 41c6.8-8.9 13-17.9 20.3-26L282 2c1.2-1.2 1.8-1.8 3.4-.3l21.5 18.7a481 481 0 0 0 53.5 39.8c22 14.6 45.3 26.7 69.1 38a461 461 0 0 0 50.2 19.7c3 1 3.5 1.7 2.6 4.4a273 273 0 0 1-44 84.5c-19 23.9-42.4 44-68.8 59.4a191 191 0 0 1-57 23.3c-24.7 5.4-48.5 4.2-69.5-12.2-46.2-37.2-49-145.8 6.6-236.4" class="st1"/><path d="M222 185c0-62.6 18-111.9 53.7-155l4.5-5.3c4.5-5 4.4-5 9.6-.3a528 528 0 0 0 171.4 101.8c3.4 1.2 4 2.3 2.7 5.8-11.9 32-29 60.7-53.2 84.8a218 218 0 0 1-96.3 57.8 80 80 0 0 1-44.5 1c-20.9-6-32.4-21.4-39.5-40.8-6.7-18.2-9-37-8.3-50" style="fill:#00b5ec"/><path d="M258.2 169.5c20 36.1 49.3 54 89.6 52.8-11.2 8.8-35 11-54.4 3.1C275 218 258 193 258.2 169.5m140 11.6c-20-2.5-37-8.7-45-28.8-1-2.8-.7-3.8 2-4.7a26 26 0 0 1 24.7 4c9.5 7 14.5 17.4 19.7 27.5 1.4 2.7-1 2-1.3 2m-129-78c11 .2 21.4-1 31.4 2.1A28 28 0 0 1 321 127c.7 3.1 0 4-3.6 4.4-19.7 2-33-8.3-44-22.8zm64.6 54q-4.4 16.5-10 32.6c-1 2.5-9.4-.4-10.4-2.5-1-2 14-20.7 20.4-30" class="st1"/></g></svg>