<svg xmlns="http://www.w3.org/2000/svg" id="_Шар_2" data-name="Шар_2" viewBox="0 0 484 294"><defs><style>.st1{fill:#1d1d1d}</style></defs><g id="e20413"><path d="M16.3 154c-3.7-10.5-8-20.5-10.7-31.1q-2.4-8.6-4.3-17.3c-.3-1.6-.4-2.4 1.7-3 9-2.4 18.2-5.3 27.4-7.8a481 481 0 0 0 62.5-23q36-16.2 69.5-37.3Q185.3 20 206.4 3c2.4-2 3.3-2 5 .3a273 273 0 0 1 46.9 83 247 247 0 0 1 12.3 90 192 192 0 0 1-11.6 60.4c-9 23.8-23 43-48.1 51.7C154.5 307 61.9 250 16.3 154" class="st1"/><path d="M122 255.6q21.2 14.5 46.4 20.3c20 4.5 39.3 3.3 55.8-11a80 80 0 0 0 23.4-37.7c11.7-37 11.9-74.6 4-112.3-7-33.4-21.8-63.5-42-91-2.3-3-3.5-3-6.4-.8a527 527 0 0 1-178.7 88c-6.7 2-6.8 1.9-5 8.4l2 6.7c16.6 53.3 48 95.4 100.5 129.4" style="fill:#e20413"/><path d="M238.3 201.2c-40.8-5.3-72.6 7.8-95.6 41-.5-14.2 12-34.7 29.7-45.7 17-10.5 47.2-9.4 65.9 4.8m-16.9-90a82 82 0 0 0-42.6-2.3c-8 2.2-14.7 6.7-17 15.3-.8 2.6-.5 3.4 2.5 4.2 24.1 6.5 38.8-2.6 57-17.2M81 178.5a76 76 0 0 1 23.6-33.7c6.4-4.9 14-7.4 22.4-4 2.5 1 3 1.9 1.8 4.6-9 22.1-25.2 28-48 33" class="st1"/></g></svg>