<svg xmlns="http://www.w3.org/2000/svg" viewBox="0 0 128 128"><path d="M80 81.3c0 4.3-1 11-5.9 12l-3-21.2q8.6.5 8.9 9.2m-8.6 12.9c-7.6.5-12 .6-17.4-3.2-11.5-8-8.2-24.6 1.1-32 1.7-1.5 7.3-6.2 8.8-6.9L66 63.5c-2.6.8-5.8 2.6-7.2 4.1-4.1 4.2-5.1 12-1.3 16.4 1.4 1.4 4 3.7 6.6 4.1-1.3-2.3-5.1-6.1-4.7-9.7.3-3.7 4-6 8-6.4zm-5.5-56.5a39 39 0 0 1 .5-15.6c1.1-3.4 6.4-9.7 8.8-6.4 3.2 4.3 1.2 9-1.5 12.9a76 76 0 0 1-7.8 9.1m6.1 60c1.6 9.2 5.8 21-5.9 24.3-3.4.9-7.1-.1-8.2-2.7.9-.8 3.2-1.4 4.3-2.4 1.2-1 2-2.2 1.5-4.6-.6-3.2-3.6-6.8-7.7-5.2-11 4.4-5.7 21.2 10.1 17.8a14 14 0 0 0 8.5-5.1c4.4-5.5.3-15.8.3-23l2.6-1.4 2.6-1.4q2.2-1.6 4-4.1A22 22 0 0 0 87 77c-.3-8.2-3.6-11.2-10.1-13.6-3.6-1.3-3.7-.7-7.3-1l-1.8-12.9c-.1-1.2 1.4-2.2 3.2-4.1a34 34 0 0 0 8.5-28C79 13 77 2 70.8 5.3c-5 3-7.2 7.9-8.7 13.6-2.1 8 .2 17.2-.2 20.9-.2 1.3-.8 1.3-1.6 2l-7.6 7.3-1.7 2.1C40.5 63 36.3 81 49.5 92c11.7 9.7 18.8 5.3 22.5 5.7" style="fill:#555;fill-rule:evenodd"/></svg>