<svg xmlns="http://www.w3.org/2000/svg" viewBox="0 0 128 128"><path d="m64 20.2 24.5 10.7L113 42H15l24.5-11zm4.2 27.3L69.7 90h-11l1.6-43.3q-.5 2-2.6 2.1a2.6 2.6 0 0 1-2.5-2.5c0-1.4 1.2-2.5 2.5-2.5h12.6q2.3.1 2.5 2.5c0 1.3-1.1 2.5-2.5 2.5q-1.5 0-2.1-1.2M58 91h12c.8 0 1.6 1 1.6 2.3v2H56.4v-2q.2-2.1 1.7-2.3M55 96.4h18v11.4H55zm40.3-48.9L97 90H86l1.5-43.3q-.4 2-2.5 2.1c-2.1.1-2.5-1.2-2.5-2.5s1.2-2.5 2.5-2.5h12.5q2.3.1 2.5 2.5c0 1.3-1 2.5-2.5 2.5q-1.4 0-2-1.2M85.2 91h12q1.4.2 1.6 2.3v2H83.6v-2q.1-2.1 1.6-2.3m-3 5.4h18v11.4h-18zM39.8 47.5 41.5 90H30.4L32 46.6q-.5 2-2.5 2.1a2.6 2.6 0 0 1-2.5-2.5q.1-2.3 2.5-2.5H42q2.4.1 2.6 2.5c0 1.3-1.1 2.5-2.6 2.5q-1.3 0-2-1.2M30 91h11.8q1.7.2 1.8 2.3v2H28v-2q.1-2.1 1.7-2.3m-3.1 5.4h18v11.4h-18z" style="fill:#555;fill-rule:evenodd"/></svg>