<svg xmlns="http://www.w3.org/2000/svg" id="_x30_" viewBox="0 0 128 128"><defs><style>.st0{fill:#555;fill-rule:evenodd}</style></defs><g id="_x31_2"><path d="M31.4 83.8a6 6 0 0 1 1.6-4c3.4-3.8 9.8-1 9.8 3.2v1.3c0 3.8-5.6 7.2-9.6 3.4a6 6 0 0 1-1.8-4M17.6 85v-2.4c.4-3.6 2.1-7.2 5.4-10l2.3-1.7c3.1-2.3 6.4-5.5 3.9-10a9 9 0 0 0-1.9-2.2l-4.4-3.4c-3.8-3.2-5.3-6.5-5.3-12 0-3.6 2-6.9 3.7-9 3.7-4.6 9.6-8 15.5-9.9 7-2.3 13-2.7 20.3-1.2a43 43 0 0 1 21.2 11.3l1.6 2c2.7 2.6 4.4 6.2 6 8.5q-1.2.8-2.1 1.9c-1.1.8-5.5 4.9-6.2 5.1-.2-2.5-2.7-4.8-5.5-4.8-6.2 0-8 7.3-3.2 10.4l1.8.8c-.4.7-5.3 5-6.1 6-2.7 2.6-2.4 2.7-4.7 3.3-7.5 2.1-11.3 7-12.8 15-.9 4.5-.8 3.5-2.1 4q-1.3.3-2.3 1.3h-.2a6.2 6.2 0 0 0 .3 9.2c2 2 9.2 3.4 11.8 3.4l2.5.2 2.6-.2c1.1-.1 3.3-.6 4.4-.9a19 19 0 0 0 11.7-9.4c2.2-3.8 1-4.1 3-6.4l5.9-6.2c.7-.8 4.2-5.1 5-5.3a40 40 0 0 1-5.1 13 45 45 0 0 1-7.2 9A44 44 0 0 1 50 105.6c-5.6 0-8.2-.4-13.3-2.1a33 33 0 0 1-15.4-10q-3.2-4-3.6-8.6Zm17-44c6.2 0 7.8 6.3 4.6 9.6-3.6 3.4-10 1.2-10-4 0-2.8 2.6-5.6 5.5-5.6m20.2-5.8c5.1 0 7.8 6 4.4 9.7-1.8 2-5.7 2.5-8 .1-4.5-4.4-.4-9.8 3.6-9.8" class="st0"/><path d="M66.3 68.7 77 79.4l9-9.8 1.2-1.2c1.6-1.6 5.7-6.6 7.7-8.8 3-3.4 15.6-18.3 15.6-22q0-2.4-2.2-2.6c-3.7 0-13.9 8.7-17 11.3l-12.6 11q-.5.6-1.2 1.1zm-9.7 27.5q4 .1 7.2-1a16 16 0 0 0 9.7-10.9q.1-.7.5-1.5c-1.8-1.1-10.3-11-11.2-11-2.9 0-7 2.2-8.7 4.7-2 2.9-2.4 6.2-3.4 10-1.4 5.6-3.7 3.3-5.2 4.9q-.8 1 0 2.3c1.3 1.4 8.5 2.5 11.1 2.5" class="st0"/></g></svg>