<svg xmlns="http://www.w3.org/2000/svg" viewBox="0 0 128 128"><path d="M59.1 95.7c-6.7 3-15.3.4-23.3-4.6A59 59 0 0 1 9.2 54.6Q22.6 51 34.7 45t23-14q4.5 5.5 7.2 11.6a66 66 0 0 0-5 11c-3.2-.8-7.3-1-9.1-.4-2.2.6-4.5 2.1-4.9 5 6.2 1.4 8.3 1.4 13.5-2.6a61 61 0 0 0-2.3 18l.1.3q-2.3-.1-4.4.3c-2.2.6-4.6 1.7-6.3 3.1a15 15 0 0 0-5 6.8c-.7 2.2-.6 4.2 1.7 1.1a23 23 0 0 1 7.8-6.5 21 21 0 0 1 6.4-1.7 31 31 0 0 0 5.3 15.8q-1.6 1.6-3.6 2.7Zm-33.8-24c1-3.6 4-7.6 5.8-8.8 1.9-1.4 4.5-2.3 7-.8-3 6.4-4.4 7.7-12.8 9.6M69 94c-5.8-3.6-8.2-11.6-8.4-20.4a55 55 0 0 1 14.9-39.5q9.6 8.6 20.3 15t22.9 10.8c-5 14.1-14.3 25-27.7 31.9-7.8 4-16 5.6-22 2.2m14-19.8L90.3 64a42 42 0 0 0-4.4 11.2q-1.4 0-2.8-.9M71.6 53.8c4.8-.1 7.5 0 9.3 1s3.7 3 3.6 5.9c-6 .2-7.7-.2-12.9-7M103.7 73c-2-4.3-3.6-6.6-5.3-7.7-1.7-1-4.4-1.8-6.8-.3 2.6 5.4 3.8 6.6 12.1 8m-12 9.3q-3.8.6-8-.6c-3.7-1-7.3-3-10-5.7a25 25 0 0 1-4.7-7.2c0 2.7.7 6.5 2.8 9.5 2.6 3.7 5.3 5.6 10.7 6.3 3.6.4 7-1 9.1-2.2Z" style="fill:#555;fill-rule:evenodd"/></svg>