<svg xmlns="http://www.w3.org/2000/svg" viewBox="0 0 128 128"><path d="m84.3 24 14.4 12.5 2.6 14.2-35.7 41h.2l-35 12.7q-4.6 1-4-3.2l7.4-36.7 35.7-41zM64.1 84.2c-1.8-1.6-2.8-1.3-4.6-1.1l28.3-32.7h-1l-.5-.3L58 82.6l-.2.2a13 13 0 0 0-4.5-9.7 12 12 0 0 0-8.5-3.2L72.4 38l-.2-.2-.2-1.2-28.2 32.6q0-2.7-1.8-4.2c-2.8-2.6-6.1-1.1-6.8 2.7l-4.8 21.1A18 18 0 0 1 42.2 99l21.6-7.7c3-1 2.5-5.2.3-7.1M72 25.5l5.8.1 5.8.1 6.7 5.8 6.8 5.9 1 5.8.8 5.7-5.7-.1-5.8-.1-6.8-5.9-6.7-5.8-1-5.8zm15.3 9.6c2.7 2.4 4.2 5.1 3.4 6.2-.9 1-3.9 0-6.6-2.5-2.8-2.4-4.3-5.2-3.4-6.2s3.8.1 6.6 2.5" style="fill:#555;fill-rule:evenodd"/></svg>