<svg xmlns="http://www.w3.org/2000/svg" viewBox="0 0 128 128"><path d="M46.3 62.4c-1-1.4-2.8-1.9-4.3-1.9q1.6 2.1 4.2 1.9M40.8 61c-.6-.4-11.7-1.2-14.5-5.9-7.4-12-8.7-17.3-1.6-26.1 1.6-1.2 2.5-3 4.5-4.2a14 14 0 0 1 12.2-4q3 .9 6.3 2.6c1.7.8 3.3 2 4.6 2.5 1.7.7 3 1.2 4.3 3.7 4.6 8.7 2 9.8 4.5 12.7 3.3 4 8.6 11.2 11.5 14.3C74 58.4 99 88.4 99.8 90.4s.4 3.1 1 3.9l5 6.2c1.8 2.3 3.4 4.4.8 6.3-3.3 2.4-7.3-4.2-11.8-6.5-2.3-1-1.3 1-6.2-2.6zm14.7 10.2c1.1.8 3.6 2.9 6.1 3-1.3-1.3-2.4-2-6.4-5.2-4-3-7.5-6.4-9.6-5.5 1 .9 9 7 10 7.7ZM33.8 39.3l-3.4.2 1.2 3.5H35zM75 61.5c-.8 5.4-3.7 8.5-8.3 12.7-1.5 1.3 11.7 10.6 14.7 13.3l7.7 6.1 4 3c1.2 1 2.9 1.7 4.3.3 2.5-2.3 2.2-3.2 2-4.8S91 80.9 89 78.2zm-1.2-.9L62.6 46c-.4 4.4-3.3 9-5.7 11.5s-4.7 3.5-2.5 6.9l10 9.4c7.4-4 9.7-10.4 9.5-13.2Zm31 45.9c-1.8-1-7.1-6.3-9.3-7 1.3 1.1 7.2 6.5 9.3 7m2.1-2.9c-.7-1.3-6-7.9-7-8.6-.4.7-1.1 2.3-3 3.3l5 4.1 4.1 4q1.8-1.2 1-2.8m-13-4.8L69.4 80.4c-3-2.4-5.9-5.5-8.4-5 2.2 2 5.6 4.4 8 6.1 0 0 12.4 9.6 16 12.2 3.4 2.7 7.7 6.3 8.8 5m-13.4-19c-2.9 1.9-8.2-6-7.6-7s3.7-.1 5.4 1.6 3.3 3.4 2.2 5.4c0 0 2.9-2 0 0M41 21.7l-.6 1.6 4.4 1.7.9-1.5Q43.6 22 41 21.7m-1-.1c-1.6 0-4 .3-4.9 1l4.1.5zm-5 1.7-.4 2 3.9.5.7-2.1zm-1.1-.3s-4.4 2.7-4 2.7c1-.5 3.5-.4 3.5-.4zm13 35.3c-.4-.2-.2-.5-1-.2-1.8.7-.7.6-1 .9zm3-1.6 2.2-1.2c-1.3-.4-1.6.2-2.2 1.2M47 57c1.7.5 1.7-.3 2.5-1.5-1.2-.6-1.4.3-2.5 1.5m3.6-4.4c-.7.9-.8.7-1 1.9 1.1-.8.6-.9 1-1.9m3.2-1c-1.7.5-2.4.1-2.5 2.9 1-.3 2.6-.4 2.5-3m2.3-1.4c-1.4 1.1-1.5.7-1.4 2.3.9-1 1.4-1 1.4-2.3m-2.5-1.7c-1.9 1.3-1.9 1.5-1.9 2.4.1 0 0 1 2.2-.7zm2.9-1.7-2.1 1.5.4 1.6c1.9-.8 2-1.2 1.7-3.1m-2.9 8.5c-2.2 1.7-4 2.6-2.4 5.3A21 21 0 0 0 61.7 46c.2-1.6-.6-2.4-1.8-3.4a20 20 0 0 1-6.4 12.8M58.1 45c-1 1-1 .7-.6 2.2 1-1.2.3-.8.6-2.2m-2.4-.5L54.2 47c1.8-1 2-.7 1.5-2.6M45.9 50l-2.3-.7.9 1.4zm-8.4 1.6c.8 1.2 1.4 1 2.8.4l-.5-.5zm-1 .2-2.1.7q.6.3 2.8.1zM48 48c-.8-1-1-1-1.9-1.2 1.7 2.5 1 2 2 1.2m9.8-5.8q-.7.2-1.2 1c-.5.9-.4.3.2 1.7 1-1 1.4-1 1-2.7M42 48.7c-.5-.2-2.5-.2-3-.3l1 1.6q1.5 1.7 3.6.9zm16.8-8-.3 1.4c.8-1.1.3 0 .3-1.4m-8.5 4.6c-.5-.4-.6-.4-1.6-.5 0 0 .3 1 .8 1.7zm-4 4.2c-1.4-3.6-2-4.2-5.8-5 1.7 3.8 2.9 4 5.9 5m2.5-2.4c-.6-1.3-.9-3-2-4a7 7 0 0 0-3-1.4c1 2.6.7 4 5 5.4m-15 5 2.1-.8-1.8-2.6-2.7.3zM37 51l2.6-.1-1.7-2.6h-2.7zm-4 1.4-2.3-2.9-1.7.8c.7 1.2 3 2 4 2.1m14.4-12.6c.7 2.2.2 3.4 3.5 4.9-.8-1.9-.1-3.9-3.1-4.8zm3.6-1.6-.3 2c.4.8 1.8 2 1.8 2l.8-2zm-13.8 9.3L35.4 44H32l2.9 3.6zm4.3.3-2-3.4-3-.4 2 3.5zm-2.7-8 1.5 3.7 3.8 1-1.9-3.7-3.4-1.1Zm-10.4 9.7 1.9-.8-2.6-3.5-2.4.9zm23.5-14.1c-.4.4-.7 1.8-.7 1.8l2.2 2.1.7-2zM43 37.2l.2 2 .1 1.1 3.7 1.8-.6-3.6zm6.8 2.7.3-2.4-2.8-2-.1 2.6zm-27.3 1.7s-1-.2-1 .2c-.1 1 .7 3.4 1.7 4.1.3.2.9-.3.9-.3zm15.3-2-3-.3L36 43l3.2.2zM49 48.3c-2.6 3.1-11.1 10.2-21.8 6.5 13.3 7 20.4-1.7 23.5-5C53 47.5 61 38.2 53.3 27.6c5.5 13.5-2.8 19-4.2 20.7Zm-18-4.2-2.5.7 2.5 3.5 2.8-.4zm-6.5 2.2 3 3.5s-4.2-3-3.6-3.2zm29.6-9.8c.3-2.3.2-1.7-1-3.6-.7.7-.7.8-1 1.6zM27 41.9l1.1 2.2 1.9-.6.9-.2-1.4-3.8-3.1.6zm11.3-6.3.4 3.2 3.4 1-.3-3zm12.1 1 .7-2.1-3-2.3q-.4 1-.5 2.3zm-7.5-.2 3.5 1.3V35L43 33.2zm-15.5 8.2-2-4.2-2.2 1 1.6 4s1.5-.7 2.6-.8m10-9.2-3.5-.4.7 3.2 3.1.3zm15.2-3.1s-1.8-2.3-3.2-3c-.5.7-.7 1-1 1.8l3 2.7zM38 31.4l.1 3.3 3.7 1 .2-3s-2.8-1.2-4-1.3m8.6 2.5.7-2.5-3.7-2.5-.6 3.2zm-17.4.9.8 3.6 3.5-.2L33 35zM51 27.4c-.6.4-.6.4-1 1 .4.6 2 1.9 2.9 3.2 0 0-.6-2.8-1.9-4.2m-22.6 7.4-3.1.8.6 3.6 3.3-.6zm19.3-4.4 1.2-1.9-3.7-2.5-1.3 2zM21.5 41l.7-.2-.7-4s-.5 4.3 0 4.2m15.7-9.8a11 11 0 0 0-3.2-.7l-.2 3.5q2 .5 3.6.5c-.2-1.3 0-2.2-.2-3.3m5 .6.6-3.1s-3.3-1.3-3.8-1.3l-.7 2.9zm-18 4.3-2 .5q.2 2 .8 4l2.2-1zm25.1-8.3 1-1a9 9 0 0 0-3.7-2.8q-.6.7-.9 1.5c.9.4 2.6 1.8 3.6 2.3M33 30l-3.8.1v3.5c1.2.5 2.9.2 4 .2zm1.5-3.9-.3 3.4 3.3.5.6-3zM24 31.6c-1 1-.8.8-1.5 1.9-.6 1.2-.6.6-.5 1.9.9 0 1-.1 2.2-.7zm20.3-6L40.1 24l-.8 2.3 3.8 1.5zM28 30.2l-3 .9v3.3l3.1-.4q.3-1.9 0-3.8m1.2-1.2q1.5.4 3.6.2.3-.6.4-1.5l.1-1.8c-1.4.2-2 0-3.6.5zm-.8.3q.3-1.5.2-2.7-1 .6-1.8 1.5l-.7.8-.5 1z" style="fill:#555;fill-rule:evenodd"/></svg>