<svg xmlns="http://www.w3.org/2000/svg" data-name="Шар_1" viewBox="0 0 128 128"><path d="M15 100.7V53.4l1.2-.3v45.6c0 2.2-.2 1.4 4.2.9a53 53 0 0 1 28 3.7l-1.8-.6-1.8-.6a65 65 0 0 0-29.8-1.4m85.6-37.2v42.6c0 .7.1 1.4-.7 1.3l-5-1.3a85 85 0 0 0-34.8.2c-.9.2-4.8 1.2-5.2 1l-2.6-.6c-12-2.7-25-3.2-37.2-.5-5.8 1.3-5.3 2.2-5.3-.7V53.3c0-1 0-.9.9-1.2l1.6-.4 6.4-1.9v-1.3c.4-.9 7.9-2.1 9.4-2.2a42 42 0 0 1 23.4 5.2l3.6 2.4 2.8-1.8 3-1.5a40 40 0 0 1 22.3-4.2l-.5.9A41 41 0 0 0 61 51.6L58 53l-2.5 1.7v50.4L59 103a45 45 0 0 1 31.5-6.2V71.3l1-.5v26.8c-.5.4-1.4.1-2 0a42 42 0 0 0-14.9.1c-3.4.7-10.9 3.2-13.7 5.2l3.4-1.4c3.4-1.2 7.8-2.3 11.3-2.8 4.3-.7 9.2-.8 13.4-.2l4 .6V69.6l1-.6v31c-.7.3-3-.3-3.8-.4q-2-.4-4-.5a54 54 0 0 0-23 3.9l1.8-.6a68 68 0 0 1 26.4-2.3l3.8.6v-30c0-3.5-.3-2.5 1.4-4l4-4.2zm-46-8.4v-.4A47 47 0 0 0 39.2 48a36 36 0 0 0-19.5 1v47.8l4.9-.7a42 42 0 0 1 25 5.6l5 3.4zM17.2 99V51.5l1.5-.6c.2 1.2 0 21.8 0 23.6V92c0 1.1-.1 5.2.2 5.8.5.1 3.2-.4 4-.5a42 42 0 0 1 23.7 3.8l3 1.7-1.7-.7a55 55 0 0 0-30.6-3m82.6-74c-2 .6-6.4 2.7-7.6 4.4-3.3 4.4-3.1 10.4-1.4 15.4.4.7 1 2 1 2.5a44 44 0 0 1-4.9-4.6 39 39 0 0 0-7 16.4l-.2 3.8.3 3.9c-.7-.4-2-2-2.7-2.3v2l.4 1.7.5 1 .9.6c.2-.2 4.3-7.1 4.7-8l4.9-8.1q3.6-5.6 7.4-10.2l3.8-4.4s6.4-6.4 6.8-6.4l-5.9 7.6-6.3 8.3c-4 5.6-7.5 12.3-11 18.4l-2.2 4.3 3.2.4c1.5.2 2-.4 2.5-.4l1-.4a28 28 0 0 0 7.5-5.2l2.7-2.9c.4-.5 3-3.3 3-3.5l-6-.3q0-.6.5-.8 6-4.2 11.6-9l2.9-2.5 1.3-1.4c2.1-2.3 3.5-6.3 4-9.6-1.6.3-4.2.8-5.9.8 0 0 5.6-3.3 7.3-5.1 1.2-1.5 1.2-2.9 1-5.2v-5.7zM79.5 71.4c-.1.4-11 19.1-11.2 19.8.5-.3 2.3-2 4.2-2.3.3-1.4 1.2-3 1.7-4.3.8-1.9 5.6-11.6 6-11.9l1.4-2.5 1.3-2.3 2.6-4.8 5.3-9.4 3-4.5q3-4.4 6.2-8.4l3.2-4.2-2.7 3-2.5 3-1.5 2-3.2 4.1c-3.6 5.1-5.1 8-8.4 13.5l-4 7c-.3.3-1 2-1.4 2.2m21.1-13.2v-1.8c-.3.1-2 1.4-2.2 1.7z" style="fill:#555;fill-rule:evenodd"/></svg>