<svg xmlns="http://www.w3.org/2000/svg" viewBox="0 0 128 128"><path d="M36.5 36.9q-2-.7-1.1 1l8.3 11.8 3.1 3 1.8.8a16 16 0 0 0-2.7 7.8l-1.3-8.4-3.5-2.5L22.8 47c-3.3-.2-5.5.5-4.2 4.3L24.7 81c.7 4.1 3.4 3.1 6 2.5 5-1.4 10-2.2 14.7-4.1.9-.3 2.3-1 2.3-2.2q0-2.8-.3-5.6A25 25 0 0 0 56.2 83L52 81c-1.3-.7-2.7-1-3.6.5-1.1 1.5-9 15.6-9.7 17s-.8 2.8.3 3.3 8 4.7 11.9 7.2c1.3.3 2.4.5 3-.5l17.7-14.4c1.4-1.3 1.7-2.8-.2-3.7l-4.8-2.3c-.7-.4-1.4 0-2.2.3l1.4-1.4 3.9-.1 2.6 1.3c-.1 1 1.4 3 2.7 4.6l.2.6q1.5 9.9 3.4 20 .5 1 .6-.4V87.5l19.5-18.3-2.2-4.5 4-3.9h.1l1 .1c1.8 0 3.2-1.8 3.3-4.1l1.2-1.3h2.1a2 2 0 0 0 1.6-2.3l-.9-5.6a2 2 0 0 0-2.2-1.5l-.4-2.4 2.5-20.8c.3-2.5-2.4-5.6-5-6q-13.7-2.4-28-2.7c-2.3.4-4.6-.6-6 4.8-1.1 4-1.4 11.6-1.8 18.7q-.8-.5-1.7-.3c-1 .3-1.5 1.4-1.1 2.3l1.4 4.3v.1l-2.3 1.3-3.3-.6-2.5 1.5c-4-4.4-3-4.3-8.7-5.6zm65.6.2a18 18 0 0 0-4.5-3.2c-7-3.6-14.5-2.5-17.3 2.3L73.8 40l2-22.1c.5-1.4 1.1-2.2 4.2-1.8 3 .4 13.4.7 20.3 2.4 2.2.6 3.5 2.2 3.3 5.8zM54 55.9l.4-.3c6.2 2.4 13.7 5.3 13.8 5.8l3.3 19.2c-4.8 2.9-12 .9-16.8-4.8-5.1-6.2-5.5-16-.7-20" style="fill:#555;fill-rule:evenodd"/></svg>