<svg xmlns="http://www.w3.org/2000/svg" viewBox="0 0 128 128"><path d="M58.2 60.2c-7.1-2.8 6.3-9.6.6-12-4.2-1.8-9.1 3-10.8 5-2.7 3.4-4.5 7.8-6.8 11.7-3.2 5-20.8 10-24.8 17.5-3.4 7-3 10 1.7 17.7 4.3 5 8.8 9.8 15 13.6 5.6 3.3 15.3 3 21.3-7.6 3.6-6.8 5-17 8.5-20 4.1-3.6 10.3-5.4 12.8-9.5 2.3-3.3 1.7-5.5-.5-6.3-3.8-1.6-5.4 4.2-10.2 3.3-1.6-.6-3.5-1.4-3.6-2.7l6-6.6.7-3.4 31.3-34.5 5.8-1.2 3.9-6.8c2.2-.1 4.4-.4 4.7-2.2q.2-2.6-2-3.7l-2.3.2L94.7 21q-1.7 1.6-.3 2.7z" style="fill:#555;fill-rule:evenodd"/></svg>