<svg xmlns="http://www.w3.org/2000/svg" viewBox="107 133 1905 876">
<g id="Hands">
<path fill="#1d1d1d" fill-rule="evenodd" d="M1069.87,850.39l.52-1.04c38.46-66.96,71.22-70.59,132.59-107.51l1.04-.52,104.49-45.07,53.87-38.86,8.68-6.74,14.76-18.65c14.63-18.39,29.26-36.79,42.34-56.08,3.5-5.05,6.73-10.23,9.97-15.41l-5.7-9.2-.26-.52c-13.6-24.61-27.19-49.22-40.66-73.83l-2.46-4.27.26-4.66c-1.55-.52-2.98-1.17-4.4-1.68l-.78-.39-.78-.39c-39.75-20.34-71.99-38.86-102.55-72.28-1.04-.91-2.07-1.94-3.24-2.85,0,0-.13,0-.13.13-31.46,26.03-45.84,46.24-89.47,43.65-3.11,2.98-6.34,5.83-9.58,8.68-14.37,12.95-18.52,18.26-39.49,20.21-12.82,1.3-25.12-1.17-34.7-8.29l-7.9,7.77c-5.05,5.18-9.58,11.14-14.76,16.45-13.98,14.77-32.37,28.88-53.74,27.59-7.77.39-15.41-1.17-22.53-4.14-6.34,2.07-13.21,1.81-19.94-2.07l-2.2-1.3-1.81-1.81c-10.75-11.01-5.31-25.52,1.68-36.53,1.81-2.72,3.63-5.18,5.44-7.77-3.5.39-6.86.39-10.49-.13-13.21-1.81-24.6-10.36-35.35-17.74l-1.42-.91-1.17-1.17c-4.92-4.92-9.58-9.97-13.85-15.02-3.75.52-7.51,1.04-11.27,1.55l-1.81.26-1.68-.13c-35.35-2.33-51.66-19.43-74.84-41.97-2.2,2.2-4.4,4.53-6.73,6.74l-.52.52-.52.52c-8.68,7.38-17.35,14.77-26.16,22.02-12.69,10.75-22.92,22.54-37.68,30.96-1.81,1.04-3.76,1.94-5.83,2.85-6.09,2.46-12.3,3.76-18.65,4.92-3.24.65-6.6,1.3-9.71,2.46-1.81.65-8.16,2.98-9.71,4.4-1.29,1.94-3.88,10.49-4.79,12.95l-.13.65-.26.52c-7.64,17.36-14.5,35.1-23.05,51.94-2.46,5.18-5.31,10.1-8.29,15.02-1.55,2.46-3.24,4.92-4.66,7.38-2.85,5.44-4.01,14.38-4.79,20.21l-.39,2.85c16.57,29.53,36.26,56.08,58.92,83.8,20.98,12.3,41.95,24.61,62.93,36.91,64.35,34.45,131.04,64.37,195.39,98.83l.65.39.65.39c27.58,18.26,56.71,38.34,76.65,65.41h0ZM1269.79,319.2c1.04.78,15.93,6.99,25.77,11.53,16.19,7.25,6.47,6.61-1.04,3.89l-33.54-15.03-22.66,13.73,23.57-2.72,28.87,9.58h0c19.29,6.48,38.72,8.94,64.87,16.06-15.41-12.95-30.56-26.16-41.95-43.78-1.42-2.85-2.72-5.7-4.14-8.42-13.08,3.76-26.16,7.38-39.1,11.14-3.11,1.04-2.72,2.46-.65,4.02h0ZM1223.69,343.81c4.66-2.07,9.45-4.27,14.11-6.48,7.9-.78,15.67-1.68,23.57-2.59,13.47,4.4,26.8,8.94,40.27,13.34,68.37,10.75,65.52,20.34,126.89,62.56,1.42,3.63,2.98,7.25,4.53,10.75-84.04-56.47-73.42-45.46.39,7.38,12.69,19.3,27.71,33.81,39.75,56.21,1.42,36.27-2.07,33.68-19.29,65.93l-8.29-13.34c-13.47-24.61-27.06-49.22-40.66-73.83.13-4.14.39-8.16.52-12.3-5.44-2.07-10.75-4.14-16.06-6.35-39.49-20.21-69.14-37.17-98.15-69.17-5.05-4.53-10.1-9.07-15.28-13.6-4.01,3.24-7.9,6.61-11.91,9.84-29.91,24.87-40.92,42.74-80.41,39.51,13.34-22.67,26.67-45.2,40.01-67.87h0ZM1107.03,429.69c5.7,8.68,15.15,12.3,28.23,11.14,16.31-1.55,17.74-5.44,29.26-15.8,4.79-4.27,9.58-8.55,14.37-12.82,11.78-19.82,23.57-39.51,35.35-59.19,1.68-4.02,3.5-8.03,5.18-12.05,9.06-5.31,18.13-10.75,27.19-16.06-20.33,1.3-40.79,2.46-61.12,3.76-5.83,10.49-11.65,20.98-17.61,31.35,63.84-45.46,17.22-7.51-11.65,14.77-9.06,11.4-18.26,22.8-27.32,34.19-7.38,6.86-14.63,13.86-21.88,20.72h0ZM1003.57,454.69c-3.24,4.79-16.31,20.72-11.52,25.65,4.27,2.46,9.06.13,14.11-5.57,2.85-2.85,5.7-5.7,8.55-8.55-2.07,7.9-1.17,8.42-6.86,14.12,6.09,3.11,12.17,4.4,17.87,3.89,12.95,1.17,26.67-6.86,41.05-22.28,4.14-4.14,10.88-12.43,15.02-16.58-7.12,4.4-17.35,11.66-24.47,14.9-17.48,8.03-31.34,7.64-43.9-4.4-3.37-.91-6.6-.13-9.84-1.17h0ZM1085.79,876.29c5.7-9.46,13.6-16.71,22.53-22.54,5.83-3.76,23.83-2.98,20.33-5.44-9.58-7.25-17.61-6.99-34.18,11.01-4.27,4.66-11.91,22.41-8.68,16.97h0ZM655.52,554.68c4.14-29.66,7.25-23.7,19.55-48.05,8.29-16.71,15.02-34.19,22.53-51.16,6.22-17.87,5.44-20.85,24.99-28.11,10.23-3.76,22.14-3.5,31.59-8.94,13.21-7.64,23.44-19.43,35.09-29.14,8.68-7.38,17.35-14.64,26.03-22.02,3.24-3.24,6.47-6.48,9.84-9.84,0-2.2-2.07-5.57,0-6.74,7.25-4.14,14.5,2.59,19.29,7.25,23.83,23.06,36.26,37.43,66.04,39.38,5.05-.65,10.1-1.3,15.02-1.94-8.93-15.02-17.87-30.05-26.67-44.95-9.71-16.19-8.68-16.19-27.97-21.5-22.66-6.09-29.91,1.3-66.55,10.23,12.04-4.92,24.08-9.97,36.13-15.03,5.96-1.68,13.6-3.37,19.81-3.11,10.75.52,18.9,3.11,29.26,5.57,3.37,3.11,6.6,6.09,9.97,9.07,13.21,33.42,26.93,55.95,51.15,80.18,22.66,15.54,29.39,20.98,54.12,6.99-17.22-20.21-34.44-40.41-51.66-60.62-15.93-11.4-24.99-18.52-38.85-32.25,8.93,5.18,17.74,10.23,26.8,15.8-4.79-8.29-9.71-16.45-14.5-24.61-9.84,0-19.68.91-29.52,0-10.88-1.04-21.36-3.63-32.11-5.57,0,0-8.55-4.4-12.56-2.46-4.01,1.94-68.5,23.44-53.61,16.06,15.02-7.38,30.69-14.64,40.14-23.57-10.23-2.33-20.33-4.66-30.56-6.99-9.19,11.66-18.39,23.31-27.58,35.1-2.72,2.59-5.31,5.31-8.03,8.03h11.01c-7.25,2.33-14.63,4.66-22.01,6.99-3.88,1.81-7.64,3.63-11.52,5.44-13.73,9.84-27.45,19.82-41.05,29.66-5.83,3.11-11.78,6.35-17.61,9.46-7.25,10.75-9.06,16.58-8.03,19.56,21.75-14.9,43.51-29.79,65.13-44.56-20.72,15.8-41.56,31.47-62.28,47.28-4.53,4.53-9.06,9.07-13.6,13.6-10.36,15.54-20.85,31.22-31.34,46.89-.26,9.2-1.68,18.39-.91,27.46.91,10.62,2.98,20.98,5.96,31.09,2.07,7.12,5.96,13.34,9.06,20.08h0ZM1091.75,945.07c-6.86,6.48-15.15,10.49-24.6,11.53-13.47,1.55-25.51-3.24-37.81-8.16l-.91-.39-.91-.39c-4.92-2.72-10.23-4.79-15.67-6.86l.26,1.3-29.91-13.08c-47.39-20.85-95.95-34.97-145.93-48.44-19.03-5.18-34.44-7.64-54.12-9.07-29.78-2.2-59.95-4.02-89.86-1.17-16.7,1.55-33.28,4.53-49.72,8.03-23.31,4.92-46.48,10.62-69.66,16.06-30.69,9.07-60.21,20.85-91.67,26.94-28.75,5.44-57.75,5.31-86.88,7.64l-16.7,11.14c-27.71,18.26-51.66,37.3-70.83,63.73l-15.93-15.8c21.49-29.4,47.78-49.48,74.97-67.48h-27.32c16.31-4.53,32.76-9.07,49.07-13.6,29.39-2.59,59.3-2.2,88.18-7.77,30.95-5.96,60.34-17.75,90.51-26.55,104.23-24.87,124.82-30.31,215.2-23.57,23.18,1.68,35.09,3.63,57.36,9.71,48.69,13.08,97.37,26.81,148.52,49.22-1.29-8.29-2.72-16.71-4.01-25,5.7,8.81,6.47,19.04,12.17,27.85,11.14,5.96,27.32,10.49,38.33,16.45,14.5,5.7,31.08,12.82,44.28-.39-11.91-13.21-10.62-9.2-10.62-26.94-6.22-6.22-12.43-12.43-18.65-18.65-3.63-1.42-7.12-2.85-10.62-4.27-5.31-1.42-10.49-2.98-15.8-4.4,37.94-.26,33.15,17.36,42.47,18.13,1.29.39-.39-17.1-.39-17.1-13.73-25.65-30.56-43.78-83.13-78.49-65.13-34.97-130.39-64.12-195.52-99.09-22.01-12.82-44.02-25.78-66.04-38.73-35.22-43-64.87-83.67-87.53-140.92-1.04-13.34,3.11-27.33-3.24-41.06-.65-1.3-4.14-6.09-4.27-7.64,2.07-.26,8.42,3.5,10.23,5.18,13.6-20.08,25.25-41.32,41.18-61.52,3.11-3.89.13-6.22-4.79-5.44-11.39,2.07-23.05,6.74-33.28,8.42,12.04-7.38,26.67-10.49,38.72-17.87,25.38-16.06,47.91-32.25,73.29-48.31,21.36-14.64,33.54-32.25,48.56-47.28-3.37-1.42-10.23-4.79-13.6-6.22,4.27-3.37,15.02,2.59,15.93-1.55.91-4.79-.39-14.38-1.94-23.19-.52-2.85-1.17-4.4-.13-6.61,3.76,8.55,12.56,22.02,11.01,25.52-6.22,14.38,114.08,32.51,115.76,27.33.65-4.66,6.73-27.85,6.73-27.85,1.17,9.33-2.33,18.52-1.17,27.85,14.5,41.97,47.91,76.16,78.99,104.27,13.98-26.68,29.91-59.06,43.9-85.75-12.3-23.19-24.6-46.24-36.9-69.43-11.01-20.85-18-28.88-40.4-37.04-51.53-18.78-95.69-38.73-148.65-74.87-9.19-2.59-20.72-4.53-37.55-4.4-19.29,11.14-38.72,22.15-58.01,33.29-51.66,30.31-111.49,47.67-172.73,62.69-3.24-.91-6.6-1.94-9.97-2.98,52.96-14.25,105.01-27.59,172.34-59.32,5.83-4.66,11.65-9.2,17.35-13.73-78.34,21.63-156.68,43.39-235.01,65.02-8.42,2.33-16.7,4.66-25.12,6.99-5.57,6.22-11.14,12.56-16.57,18.78-9.58,17.1-19.29,34.19-28.87,51.29-45.32,62.04-90.77,124.09-136.09,186.13-33.28,50.52-66.43,100.9-99.7,151.42-.13,8.42-.26,16.97-.39,25.39-3.11-4.79-6.09-9.58-9.19-14.38l-71.09,68.13-10.62-7.77,71.48-68.52,4.79-4.53,2.2-3.37c33.28-50.52,66.43-101.03,99.7-151.42l.26-.39.26-.39c45.19-61.65,90.25-123.44,135.44-185.22,9.45-16.71,18.9-33.55,28.36-50.39l.91-1.55,1.17-1.42c5.57-6.35,11.14-12.56,16.7-18.91l3.5-3.89,5.05-1.42c8.29-2.33,16.7-4.66,25.12-6.99,78.34-21.63,156.68-43.39,235.01-65.02l29-7.9c5.96-3.5,11.91-6.86,17.87-10.23l4.01-2.33,4.66-.13c5.7,0,11.39.13,16.96.65l12.43-3.5-5.31,4.14c6.22.91,12.43,2.07,18.65,3.89l2.72.78,2.33,1.55c31.85,21.63,64.22,39.89,99.57,55.05,14.89,6.48,29.91,12.3,45.19,17.75,26.67,9.71,36.9,20.85,49.98,45.46,8.42,16.06,16.96,31.99,25.51,48.05,6.6-12.69,13.21-25.52,19.81-38.21,5.96-11.14,11.14-20.72,20.98-29.01,9.32-7.9,25.77-13.73,36.9-19.56,37.16-19.17,75.88-34.97,112.52-55.18,19.42-10.75,43.9-32.25,67.46-24.61,15.8,5.05,30.95,13.6,45.58,22.41l17.22,2.33c44.54,6.09,88.57,14.64,131.3,29.01,37.68,12.56,75.36,25,113.04,37.56,23.31,5.7,30.43,12.56,41.95,33.68,15.28,28.11,33.02,54.79,52.7,80.05l.13.26,133.5,186.39,80.41,124.73,1.29,1.3c23.31,21.63,46.61,43.26,70.05,65.02l.65.65.52.65c1.81,2.07,3.63,4.14,5.18,6.22l-10.62,14.64c-2.72-4.92-5.96-9.58-9.84-13.86-23.31-21.63-46.74-43.39-70.05-65.02-5.96,39.63-9.71,12.18-6.73-8.55l-77.56-120.46-132.98-185.74c-20.07-25.78-38.46-52.98-54.25-82.38-9.84-17.62-13.21-20.85-31.21-25.13-37.94-12.69-75.88-25.26-113.69-37.82-42.73-14.38-85.46-22.54-128.19-28.24,53.48,31.09,94.91,46.24,157.45,64.37,8.55,2.98,12.82,8.03-.26,4.02-51.15-15.8-107.47-30.44-154.34-57.12-24.34-13.73-46.48-29.66-68.63-36.79-14.11-4.53-35.09,13.08-53.48,23.19-37.16,20.59-75.88,36.27-112.91,55.44-8.29,4.4-27.84,12.56-33.67,17.36-7.77,6.61-12.17,15.15-16.7,23.83-12.82,24.35-46.1,88.6-46.48,89.11-.39.78,4.27,8.68,6.09,11.66,2.07,7.12.65,10.36,0,14.12-2.07-8.29-4.92-14.9-9.97-18.52-15.54,25-32.11,50.39-35.48,76.55-.26,4.27,12.04.65,16.83-5.18,5.96-6.22,12.95-12.56,16.06-21.24,3.37-6.35,6.99-3.11,3.63,2.33-6.6,10.75-17.09,24.87-25.9,30.7,8.03,8.16,21.75,7.38,31.85,3.76,20.2-11.01,40.4-23.83,60.6-39.38,26.41-25.26,50.76-55.7,68.63-94.04,0-6.35-2.46-12.69-1.42-18.91.39-1.81,2.85-5.18,3.76-3.76,3.88,6.22,1.94,13.86,4.27,20.85,47.52-4.02,76.01-9.2,121.97-23.19.52-4.79-1.68-11.14.39-15.54.91-1.68,4.92-1.68,5.57,0,1.81,4.02,0,8.68,0,13.08,2.72,0,5.31-.52,7.9,0,.91.13,2.46,1.17,2.07,1.94-1.04,1.81-2.59,3.24-4.01,4.53-1.42,1.17-4.66.39-5.96,1.55,29.39,42.48,67.2,66.96,108.64,94.81,7.64,5.18,9.19,6.09,17.87,8.94,38.46,13.21,47.65,22.67-5.7,4.53,13.85,22.93,29,45.33,43.9,68l4.01-7.77-6.73,45.59c-26.29,51.42-42.73,73.44-78.73,118.65l28.23-14.51-54.9,43.13-55.81,40.15-105.14,45.33c-63.19,37.82-90.51,38.6-126.25,101.03-8.68,20.98-13.98,50.13-5.7,63.73,3.63,5.96,10.23,7.12,24.21,3.5,6.47-1.81,12.95-3.63,19.29-5.57,32.76-14.12,39.88-16.58,40.66-40.8.13-4.79-1.94-9.33-1.94-16.32,5.57-3.11,8.16,16.84,7.51,22.67-.39,3.63-2.07,8.29-4.92,17.1,19.55-6.74,39.1-13.47,58.66-20.08,119.13-30.05,143.86-34.45,264.41-12.56l136.35,38.21c51.92,10.1,77.3,7.25,94.65,10.75,26.54,5.31,34.83,21.63,92.71,83.03l-15.41,12.05c-15.54-16.71-30.56-33.68-46.23-50.13-6.47-6.86-15.41-16.45-24.34-20.34-2.59-1.17-5.44-1.94-8.29-2.59-9.71-1.94-22.01-1.94-31.98-2.46-21.11-1.42-41.69-4.14-62.54-8.16l-.65-.13-136.22-38.34c-41.18-7.38-85.07-15.02-127.02-12.69-18.39,1.04-36.64,3.89-54.77,7.64-24.6,4.92-49.2,11.27-73.55,17.36-19.42,6.61-38.72,13.21-58.01,19.82l-12.95,4.4c-7.51,4.4-16.7,8.03-27.06,12.56l-1.04.52-1.04.26c-6.47,1.94-12.95,3.76-19.29,5.57l-.39.13h-.26c-5.57,1.42-11.39,2.46-16.96,2.46h0Z"/>
</g>
<g id="logo-mini">
  <g id="MaskRed">
    <path fill="#1d1d1d" d="M835.39,631.01c-3.7-10.5-7.9-20.5-10.7-31.1-1.53-5.73-2.97-11.5-4.3-17.3-.3-1.6-.4-2.4,1.7-3,9.1-2.4,18.2-5.3,27.4-7.8,21.34-6.21,42.22-13.9,62.5-23,24.02-10.77,47.25-23.23,69.5-37.3,15.27-9.59,29.96-20.08,44-31.4,2.4-2,3.3-2,5,.3,20.38,24.7,36.26,52.8,46.9,83,9.63,28.98,13.8,59.5,12.3,90-.58,20.63-4.5,41.03-11.6,60.4-9,23.8-22.9,43-48.1,51.7-56.4,18.5-149-38.4-194.6-134.5"/>
    <path fill="#e20413" d="M941.09,732.61c14.02,9.68,29.78,16.57,46.4,20.3,20.1,4.5,39.3,3.3,55.8-10.9,11.21-10.14,19.33-23.24,23.4-37.8,11.7-37,11.9-74.6,4-112.3-7-33.4-21.8-63.5-42-90.9-2.3-3-3.5-3-6.4-.9-53.42,40.46-114.07,70.36-178.7,88.1-6.7,1.9-6.8,1.8-5,8.3l2,6.7c16.6,53.3,48,95.4,100.5,129.4"/>
    <path fill="#1d1d1d" d="M1057.39,678.21c-40.8-5.3-72.6,7.8-95.6,41-.5-14.2,12-34.7,29.7-45.7,17-10.5,47.2-9.4,65.9,4.8M1040.57,588.32c-13.72-4.51-28.46-5.28-42.62-2.24-7.97,2.12-14.68,6.62-17.09,15.22-.75,2.65-.42,3.47,2.59,4.28,24.09,6.51,38.76-2.63,57.03-17.25M900.02,655.52c4.57-13.11,12.73-24.76,23.6-33.71,6.42-4.87,13.97-7.35,22.38-3.95,2.55,1.01,3.02,1.84,1.89,4.59-9.06,22.13-25.21,27.92-47.96,33.06"/>
  </g>
  <g id="MaskBlue">
    <path fill="#1d1d1d" d="M1068.68,517.96c6.8-8.8,13-17.8,20.3-26l12.1-13c1.2-1.1,1.8-1.7,3.4-.2l21.5,18.7c16.89,14.49,34.77,27.79,53.5,39.8,22,14.6,45.3,26.7,69.1,38,16.33,7.54,33.1,14.12,50.2,19.7,3,1,3.5,1.7,2.6,4.4-9.6,30.53-24.49,59.13-44,84.5-19.06,23.89-42.39,44.03-68.8,59.4-17.61,10.8-36.86,18.67-57,23.3-24.7,5.4-48.5,4.2-69.5-12.2-46.2-37.2-49-145.8,6.6-236.4"/>
    <path fill="#00b5ec" d="M1041.18,661.96c-.1-62.5,18-111.8,53.7-154.9l4.5-5.3c4.5-5,4.4-5,9.6-.3,50.15,44.51,108.32,79.06,171.4,101.8,3.4,1.2,4,2.3,2.7,5.8-11.9,32-29,60.7-53.2,84.8-26.5,27.35-59.7,47.27-96.3,57.8-14.44,4.54-29.87,4.88-44.5,1-20.9-6-32.4-21.4-39.5-40.8-6.7-18.2-9-37.1-8.3-50"/>
    <path fill="#1d1d1d" d="M1077.38,646.56c20,36.1,49.3,54,89.6,52.8-11.2,8.8-35,11-54.4,3.1-18.4-7.4-35.5-32.4-35.2-55.9M1217.38,658.16c-20.1-2.5-37-8.7-45-28.8-1.1-2.8-.7-3.8,1.9-4.7,8.41-3.01,17.77-1.5,24.8,4,9.5,7,14.5,17.4,19.7,27.5,1.4,2.7-1,2-1.3,2M1088.38,580.06c11.1.3,21.5-1,31.5,2.2,10.36,2.75,18.25,11.18,20.3,21.7.7,3.1,0,4-3.6,4.4-19.7,1.9-33-8.3-44.1-22.8l-4.1-5.5ZM1152.98,634.11c-2.86,11.01-6.2,21.88-10,32.6-1,2.5-9.4-.4-10.4-2.5-1-2,14-20.7,20.4-30"/>
  </g>
</g>
</svg>
